<svg id="ekqtqpnl7gpi1" xmlns="http://www.w3.org/2000/svg" xmlns:xlink="http://www.w3.org/1999/xlink" viewBox="0 0 450.138000 326.989000" shape-rendering="geometricPrecision" text-rendering="geometricPrecision"><style><![CDATA[#ekqtqpnl7gpi9_ts {animation: ekqtqpnl7gpi9_ts__ts 10000ms linear 1 normal forwards}@keyframes ekqtqpnl7gpi9_ts__ts { 0% {transform: translate(-398px,-106.945000px) scale(1,1)} 65% {transform: translate(-398px,-106.945000px) scale(1,1)} 68% {transform: translate(-398px,-106.945000px) scale(1,1)} 100% {transform: translate(-398px,-106.945000px) scale(1,1)} }#ekqtqpnl7gpi10 {animation: ekqtqpnl7gpi10_c_o 10000ms linear 1 normal forwards}@keyframes ekqtqpnl7gpi10_c_o { 0% {opacity: 0} 21% {opacity: 0;animation-timing-function: cubic-bezier(0.785000,0.135000,0.150000,0.860000)} 26% {opacity: 1} 100% {opacity: 1} }#ekqtqpnl7gpi13 {animation: ekqtqpnl7gpi13_c_o 10000ms linear 1 normal forwards}@keyframes ekqtqpnl7gpi13_c_o { 0% {opacity: 0} 33% {opacity: 0} 38% {opacity: 1} 100% {opacity: 1} }#ekqtqpnl7gpi14 {animation: ekqtqpnl7gpi14_c_o 10000ms linear 1 normal forwards}@keyframes ekqtqpnl7gpi14_c_o { 0% {opacity: 0} 45% {opacity: 0} 50% {opacity: 1} 100% {opacity: 1} }#ekqtqpnl7gpi17_to {animation: ekqtqpnl7gpi17_to__to 10000ms linear 1 normal forwards}@keyframes ekqtqpnl7gpi17_to__to { 0% {transform: translate(475.627152px,263.169703px)} 68% {transform: translate(475.627152px,263.169703px)} 73% {transform: translate(394.470000px,107.717703px)} 100% {transform: translate(394.470000px,107.717703px)} }#ekqtqpnl7gpi17_ts {animation: ekqtqpnl7gpi17_ts__ts 10000ms linear 1 normal forwards}@keyframes ekqtqpnl7gpi17_ts__ts { 0% {transform: scale(1,1)} 68% {transform: scale(1,1)} 73% {transform: scale(5.500000,5.500000)} 100% {transform: scale(5.500000,5.500000)} }#ekqtqpnl7gpi19 {animation: ekqtqpnl7gpi19_c_o 10000ms linear 1 normal forwards}@keyframes ekqtqpnl7gpi19_c_o { 0% {opacity: 0} 24% {opacity: 0} 29% {opacity: 1} 100% {opacity: 1} }#ekqtqpnl7gpi20 {animation: ekqtqpnl7gpi20_c_o 10000ms linear 1 normal forwards}@keyframes ekqtqpnl7gpi20_c_o { 0% {opacity: 0} 36% {opacity: 0} 41% {opacity: 1} 100% {opacity: 1} }#ekqtqpnl7gpi21 {animation: ekqtqpnl7gpi21_c_o 10000ms linear 1 normal forwards}@keyframes ekqtqpnl7gpi21_c_o { 0% {opacity: 0} 48% {opacity: 0} 53% {opacity: 1} 100% {opacity: 1} }#ekqtqpnl7gpi22 {animation: ekqtqpnl7gpi22_c_o 10000ms linear 1 normal forwards}@keyframes ekqtqpnl7gpi22_c_o { 0% {opacity: 0} 57% {opacity: 0} 62% {opacity: 1} 100% {opacity: 1} }#ekqtqpnl7gpi26 {animation: ekqtqpnl7gpi26_c_o 10000ms linear 1 normal forwards}@keyframes ekqtqpnl7gpi26_c_o { 0% {opacity: 0} 27% {opacity: 0} 32% {opacity: 1} 100% {opacity: 1} }#ekqtqpnl7gpi27 {animation: ekqtqpnl7gpi27_c_o 10000ms linear 1 normal forwards}@keyframes ekqtqpnl7gpi27_c_o { 0% {opacity: 0} 39% {opacity: 0} 44% {opacity: 1} 100% {opacity: 1} }#ekqtqpnl7gpi28 {animation: ekqtqpnl7gpi28_c_o 10000ms linear 1 normal forwards}@keyframes ekqtqpnl7gpi28_c_o { 0% {opacity: 0} 51% {opacity: 0} 56% {opacity: 1} 100% {opacity: 1} }#ekqtqpnl7gpi29 {animation: ekqtqpnl7gpi29_c_o 10000ms linear 1 normal forwards}@keyframes ekqtqpnl7gpi29_c_o { 0% {opacity: 0} 60% {opacity: 0} 65% {opacity: 1} 100% {opacity: 1} }#ekqtqpnl7gpi30 {animation: ekqtqpnl7gpi30_c_o 10000ms linear 1 normal forwards}@keyframes ekqtqpnl7gpi30_c_o { 0% {opacity: 0} 30% {opacity: 0} 35% {opacity: 1} 100% {opacity: 1} }#ekqtqpnl7gpi31 {animation: ekqtqpnl7gpi31_c_o 10000ms linear 1 normal forwards}@keyframes ekqtqpnl7gpi31_c_o { 0% {opacity: 0} 42% {opacity: 0} 47% {opacity: 1} 100% {opacity: 1} }#ekqtqpnl7gpi32 {animation: ekqtqpnl7gpi32_c_o 10000ms linear 1 normal forwards}@keyframes ekqtqpnl7gpi32_c_o { 0% {opacity: 0} 54% {opacity: 0} 59% {opacity: 1} 100% {opacity: 1} }#ekqtqpnl7gpi33_to {animation: ekqtqpnl7gpi33_to__to 10000ms linear 1 normal forwards}@keyframes ekqtqpnl7gpi33_to__to { 0% {transform: translate(754.441566px,248.488542px)} 10% {transform: translate(754.441566px,248.488542px)} 20% {transform: translate(1000px,241.598308px)} 100% {transform: translate(1000px,241.598308px)} }#ekqtqpnl7gpi33_tr {animation: ekqtqpnl7gpi33_tr__tr 10000ms linear 1 normal forwards}@keyframes ekqtqpnl7gpi33_tr__tr { 0% {transform: rotate(360deg)} 10% {transform: rotate(0deg)} 100% {transform: rotate(0deg)} }#ekqtqpnl7gpi33 {animation: ekqtqpnl7gpi33_c_o 10000ms linear 1 normal forwards}@keyframes ekqtqpnl7gpi33_c_o { 0% {opacity: 1} 18% {opacity: 1} 22% {opacity: 0} 100% {opacity: 0} }]]></style><defs><clipPath id="ekqtqpnl7gpi2"><rect id="ekqtqpnl7gpi3" width="202" height="193.055000" rx="0" ry="0" fill="none" stroke="none" stroke-width="1"/></clipPath><clipPath id="ekqtqpnl7gpi4"><rect id="ekqtqpnl7gpi5" width="450.138000" height="326.989000" rx="0" ry="0" fill="none" stroke="none" stroke-width="1"/></clipPath></defs><g id="ekqtqpnl7gpi6" clip-path="url(#ekqtqpnl7gpi4)"><g id="ekqtqpnl7gpi7" transform="matrix(1 0 0 1 -544 -80.01100000000000)"><g id="ekqtqpnl7gpi8" transform="matrix(1 0 0 1 657.26426199999946 146.97930829000001)" clip-path="url(#ekqtqpnl7gpi2)"><g id="ekqtqpnl7gpi9_ts" transform="translate(-398,-106.945000) scale(1,1)"><g id="ekqtqpnl7gpi9" transform="translate(0,0)"><path id="ekqtqpnl7gpi10" d="M-4890.737000,1542.293000C-4890.737000,1542.293000,-4868.192000,1544.587000,-4857.649000,1562.465000C-4857.379000,1561.514000,-4857.795000,1544.521000,-4857.649000,1542.293000C-4870.630000,1531.525000,-4887.782000,1530.564000,-4887.782000,1530.564000C-4890.012000,1541.787000,-4890.737000,1542.293000,-4890.737000,1542.293000Z" transform="matrix(0.99863000000000 0.05233600000000 -0.05233600000000 0.99863000000000 5389.26000000000022 -1067.78999999999996)" opacity="0" fill="rgb(245,117,6)" stroke="none" stroke-width="1"/><path id="ekqtqpnl7gpi11" d="M18.500000,0C28.578470,-0.136246,36.860124,7.921580,37,18C36.860124,28.078420,28.578470,36.136246,18.500000,36C8.421530,36.136246,0.139876,28.078420,0,18C0.139876,7.921580,8.421530,-0.136246,18.500000,0Z" transform="matrix(1 0 0 1 398 222)" fill="rgb(245,117,6)" stroke="none" stroke-width="1"/><path id="ekqtqpnl7gpi12" d="M-4903.892000,1542.223000L-4892.670000,1546.623000C-4892.670000,1546.623000,-4884.809000,1528.123000,-4885.913000,1507.345000C-4887.017000,1486.567000,-4880.803000,1475.645000,-4879.693000,1473.323000C-4875.613000,1464.362000,-4873.601000,1463.159000,-4873.576000,1462.946000C-4868.140000,1454.310000,-4858.054000,1447.388000,-4857.309000,1447.156000C-4847.601324,1440.629738,-4836.587627,1436.298176,-4825.035000,1434.463000C-4815.972000,1433.026000,-4797.191000,1436.396000,-4786.278000,1444.063000C-4775.365000,1451.730000,-4780.547000,1446.205000,-4765.947000,1460.272000C-4753.999000,1475.154000,-4769.213000,1455.986000,-4764.008000,1462.960000C-4760.008000,1469.934000,-4757.831000,1473.360000,-4757.831000,1473.360000C-4757.831000,1473.360000,-4751.995000,1486.010000,-4751.938000,1495.073000C-4751.670000,1502.951000,-4751.726000,1507.348000,-4751.726000,1507.348000C-4751.726000,1507.348000,-4751.626000,1522.072000,-4749.709000,1530.486000C-4748.492000,1539.220000,-4747.957000,1538.734000,-4746.856000,1542.286000C-4745.172000,1546.254000,-4745.039000,1546.638000,-4745.039000,1546.638000C-4745.039000,1546.638000,-4735.362000,1543.331000,-4733.668000,1542.286000C-4741.244000,1522.231000,-4739.126000,1502.779000,-4739.590000,1495.074000C-4743.440000,1461.208000,-4760.618000,1449.674000,-4759.752000,1449.013000C-4777.169000,1431.113000,-4794.314000,1425.819000,-4809.261000,1423.475000C-4820.802000,1422.259000,-4826.100000,1423.464000,-4829.882000,1423.715000C-4844.618000,1425.315000,-4858.650000,1433.874000,-4859.240000,1433.966000C-4875.302000,1442.382000,-4885.940000,1459.684000,-4886.440000,1460.434000C-4895.998000,1474.277000,-4896.918000,1487.956000,-4897.331000,1489.343000C-4898.555000,1495.700000,-4898.159000,1502.195000,-4898.131000,1512.099000C-4898.568000,1525.480000,-4903.892000,1542.223000,-4903.892000,1542.223000Z" transform="matrix(1 0 0 1 5315 -1316)" fill="rgb(245,117,6)" stroke="none" stroke-width="1"/><path id="ekqtqpnl7gpi13" d="M-4890.737000,1542.293000C-4878.963553,1542.514078,-4868.226961,1549.075031,-4862.659000,1559.451000C-4862.404000,1558.500000,-4861.695000,1543.851000,-4861.559000,1541.619000C-4869.297449,1535.071835,-4878.856081,1531.052805,-4888.948000,1530.103000C-4891.057000,1541.325000,-4890.737000,1542.293000,-4890.737000,1542.293000Z" transform="matrix(1 0 0 1 5319 -1358)" opacity="0" fill="rgb(245,117,6)" stroke="none" stroke-width="1"/><path id="ekqtqpnl7gpi14" d="M-4895.836000,1541.619000C-4895.836000,1541.619000,-4879.413000,1541.572000,-4872.336000,1559.451000C-4872.155000,1558.500000,-4871.653000,1543.851000,-4871.554000,1541.619000C-4880.265000,1530.851000,-4890.240000,1530.564000,-4890.240000,1530.564000C-4891.738000,1541.787000,-4895.836000,1541.619000,-4895.836000,1541.619000Z" transform="matrix(1 0 0 1 5329 -1387)" opacity="0" fill="rgb(245,117,6)" stroke="none" stroke-width="1"/><path id="ekqtqpnl7gpi15" d="M18.500000,0C28.578470,-0.136246,36.860124,7.921580,37,18C36.860124,28.078420,28.578470,36.136246,18.500000,36C8.421530,36.136246,0.139876,28.078420,0,18C0.139876,7.921580,8.421530,-0.136246,18.500000,0Z" transform="matrix(1 0 0 1 433 253)" fill="rgb(245,117,6)" stroke="none" stroke-width="1"/><path id="ekqtqpnl7gpi16" d="M-4867.017000,1577.750000L-4855.545000,1582.168000C-4855.545000,1582.168000,-4848.712000,1573.788000,-4849.268000,1530.880000C-4849.575000,1508.480000,-4849.268000,1495.552000,-4849.268000,1495.552000C-4849.268000,1495.552000,-4850.228000,1461.842000,-4848.653000,1459.852000C-4845.280000,1440.322000,-4824.965000,1435.458000,-4824.965000,1435.458000C-4824.965000,1435.458000,-4848.065000,1438.358000,-4857.194000,1447.132000C-4862.221000,1453.891000,-4861.502000,1470.568000,-4861.502000,1470.568000L-4861.502000,1506.068000C-4861.502000,1506.068000,-4861.360000,1522.818000,-4861.502000,1540.877000C-4859.868000,1553.717000,-4867.017000,1577.750000,-4867.017000,1577.750000Z" transform="matrix(1 0 0 1 5317 -1319)" fill="rgb(245,117,6)" stroke="none" stroke-width="1"/><g id="ekqtqpnl7gpi17_to" transform="translate(475.627152,263.169703)"><g id="ekqtqpnl7gpi17_ts" transform="scale(1,1)"><path id="ekqtqpnl7gpi17" d="M18.500000,0C28.578470,-0.136246,36.860124,7.921580,37,18C36.860124,28.078420,28.578470,36.136246,18.500000,36C8.421530,36.136246,0.139876,28.078420,0,18C0.139876,7.921580,8.421530,-0.136246,18.500000,0Z" transform="translate(0,0)" fill="rgb(245,117,6)" stroke="none" stroke-width="1"/></g></g><path id="ekqtqpnl7gpi18" d="M-4825.009000,1435.333000L-4825.009000,1565.646000L-4824.397000,1591.240000L-4812.263000,1591.240000L-4812.263000,1435.333000Z" transform="matrix(1 0 0 1 5312.24114439999994 -1320.94979175999993)" fill="rgb(245,117,6)" stroke="none" stroke-width="1"/><path id="ekqtqpnl7gpi19" d="M-4890.737000,1542.293000C-4890.737000,1542.293000,-4866.976000,1544.587000,-4855.865000,1562.465000C-4855.582000,1561.514000,-4856.020000,1544.521000,-4855.865000,1542.293000C-4869.546000,1531.525000,-4887.623000,1530.564000,-4887.623000,1530.564000C-4889.973000,1541.787000,-4890.737000,1542.293000,-4890.737000,1542.293000Z" transform="matrix(1 0 0 1 5345 -1297)" opacity="0" fill="rgb(245,117,6)" stroke="none" stroke-width="1"/><path id="ekqtqpnl7gpi20" d="M-4890.737000,1542.293000C-4890.737000,1542.293000,-4870.497000,1544.587000,-4861.031000,1562.465000C-4860.790000,1561.514000,-4861.163000,1544.521000,-4861.031000,1542.293000C-4872.685000,1531.525000,-4888.084000,1530.564000,-4888.084000,1530.564000C-4890.086000,1541.787000,-4890.737000,1542.293000,-4890.737000,1542.293000Z" transform="matrix(1 0 0 1 5348.18000000000029 -1329)" opacity="0" fill="rgb(245,117,6)" stroke="none" stroke-width="1"/><path id="ekqtqpnl7gpi21" d="M-4890.737000,1542.293000C-4890.737000,1542.293000,-4869.722000,1544.587000,-4859.895000,1562.465000C-4859.645000,1561.514000,-4860.033000,1544.521000,-4859.895000,1542.293000C-4871.995000,1531.525000,-4887.983000,1530.564000,-4887.983000,1530.564000C-4890.061000,1541.787000,-4890.737000,1542.293000,-4890.737000,1542.293000Z" transform="matrix(0.99863000000000 -0.05233600000000 0.05233600000000 0.99863000000000 5260.42000000000007 -1623.14000000000010)" opacity="0" fill="rgb(245,117,6)" stroke="none" stroke-width="1"/><path id="ekqtqpnl7gpi22" d="M-4890.737000,1542.293000C-4890.737000,1542.293000,-4868.987000,1544.587000,-4858.816000,1562.465000C-4858.557000,1561.514000,-4858.958000,1544.521000,-4858.816000,1542.293000C-4871.339000,1531.525000,-4887.887000,1530.564000,-4887.887000,1530.564000C-4890.038000,1541.787000,-4890.737000,1542.293000,-4890.737000,1542.293000Z" transform="matrix(0.99800000000000 -0.07000000000000 0.07000000000000 0.99800000000000 5229.19999999999982 -1738.38000000000011)" opacity="0" fill="rgb(245,117,6)" stroke="none" stroke-width="1"/><path id="ekqtqpnl7gpi23" d="M18.500000,0C28.578470,-0.136246,36.860124,7.921580,37,18C36.860124,28.078420,28.578470,36.136246,18.500000,36C8.421530,36.136246,0.139876,28.078420,0,18C0.139876,7.921580,8.421530,-0.136246,18.500000,0Z" transform="matrix(1 0 0 1 521 253)" fill="rgb(245,117,6)" stroke="none" stroke-width="1"/><path id="ekqtqpnl7gpi24" d="M18.500000,0C28.578470,-0.136246,36.860124,7.921580,37,18C36.860124,28.078420,28.578470,36.136246,18.500000,36C8.421530,36.136246,0.139876,28.078420,0,18C0.139876,7.921580,8.421530,-0.136246,18.500000,0Z" transform="matrix(1 0 0 1 557.99999999999977 222.64755412499966)" fill="rgb(245,117,6)" stroke="none" stroke-width="1"/><path id="ekqtqpnl7gpi25" d="M-4824.964000,1577.750000L-4836.436000,1582.168000C-4836.436000,1582.168000,-4843.269000,1573.788000,-4842.713000,1530.880000C-4842.406000,1508.480000,-4842.713000,1495.552000,-4842.713000,1495.552000C-4842.713000,1495.552000,-4841.753000,1461.842000,-4843.328000,1459.852000C-4846.701000,1440.322000,-4867.015000,1435.458000,-4867.015000,1435.458000C-4867.015000,1435.458000,-4843.915000,1438.358000,-4834.786000,1447.132000C-4829.759000,1453.891000,-4830.478000,1470.568000,-4830.478000,1470.568000L-4830.478000,1506.068000C-4830.478000,1506.068000,-4830.620000,1522.818000,-4830.478000,1540.877000C-4832.112000,1553.717000,-4824.964000,1577.750000,-4824.964000,1577.750000Z" transform="matrix(1 0 0 1 5367 -1318)" fill="rgb(245,117,6)" stroke="none" stroke-width="1"/><path id="ekqtqpnl7gpi26" d="M-4855.768000,1542.293000C-4855.768000,1542.293000,-4879.529000,1544.587000,-4890.640000,1562.465000C-4890.923000,1561.514000,-4890.485000,1544.521000,-4890.640000,1542.293000C-4876.959000,1531.525000,-4858.882000,1530.564000,-4858.882000,1530.564000C-4856.532000,1541.787000,-4855.768000,1542.293000,-4855.768000,1542.293000Z" transform="matrix(1 0 0 1 5387 -1294)" opacity="0" fill="rgb(245,117,6)" stroke="none" stroke-width="1"/><path id="ekqtqpnl7gpi27" d="M0,20.172000C0,20.172000,23.761000,17.878000,34.872000,0C35.155000,0.951000,34.717000,17.944000,34.872000,20.172000C21.191000,30.939000,3.114000,31.900000,3.114000,31.900000C0.765000,20.678000,0,20.172000,0,20.172000Z" transform="matrix(-1 0 -0 -1 531.23199999999997 235.37119170999998)" opacity="0" fill="rgb(245,117,6)" stroke="none" stroke-width="1"/><path id="ekqtqpnl7gpi28" d="M0,20.172000C0,20.172000,23.761000,17.878000,34.873000,0C35.156000,0.951000,34.718000,17.944000,34.873000,20.172000C21.191000,30.939000,3.114000,31.900000,3.114000,31.900000C0.765000,20.678000,0,20.172000,0,20.172000Z" transform="matrix(-0.99863000000000 -0.05233600000000 0.05233600000000 -0.99863000000000 531.37400000000002 196.35800000000000)" opacity="0" fill="rgb(245,117,6)" stroke="none" stroke-width="1"/><path id="ekqtqpnl7gpi29" d="M0,20.172000C0,20.172000,23.761000,17.878000,34.872000,0C35.155000,0.951000,34.717000,17.944000,34.872000,20.172000C21.191000,30.940000,3.114000,31.900000,3.114000,31.900000C0.765000,20.678000,0,20.172000,0,20.172000Z" transform="matrix(-0.99800000000000 -0.07000000000000 0.07000000000000 -0.99800000000000 530.07700000000000 162.64500000000001)" opacity="0" fill="rgb(245,117,6)" stroke="none" stroke-width="1"/><path id="ekqtqpnl7gpi30" d="M0,20.172000C0,20.172000,22.545000,17.878000,33.087000,0C33.357000,0.951000,32.941000,17.944000,33.087000,20.172000C20.107000,30.939000,2.955000,31.900000,2.955000,31.900000C0.726000,20.678000,0,20.172000,0,20.172000Z" transform="matrix(-0.99863000000000 0.05233600000000 -0.05233600000000 -0.99863000000000 569.25599999999997 238.57400000000001)" opacity="0" fill="rgb(245,117,6)" stroke="none" stroke-width="1"/><path id="ekqtqpnl7gpi31" d="M-4858.575000,1543.394000C-4871.505954,1543.618837,-4883.323675,1550.759394,-4889.537000,1562.102000C-4889.818000,1561.065000,-4890.600000,1545.088000,-4890.754000,1542.659000C-4877.191000,1530.918000,-4860.554000,1530.102000,-4860.554000,1530.102000C-4858.223000,1542.339000,-4858.575000,1543.394000,-4858.575000,1543.394000Z" transform="matrix(1 0 0 1 5425 -1356.65000000000009)" opacity="0" fill="rgb(245,117,6)" stroke="none" stroke-width="1"/><path id="ekqtqpnl7gpi32" d="M-4861.556000,1541.619000C-4861.556000,1541.619000,-4884.744000,1541.572000,-4894.733000,1559.451000C-4894.988000,1558.500000,-4895.697000,1543.851000,-4895.833000,1541.619000C-4888.463205,1535.182294,-4879.207918,1531.303998,-4869.451000,1530.564000C-4867.343000,1541.787000,-4861.556000,1541.619000,-4861.556000,1541.619000Z" transform="matrix(1 0 0 1 5427.99993959000039 -1387)" opacity="0" fill="rgb(245,117,6)" stroke="none" stroke-width="1"/></g></g></g><g id="ekqtqpnl7gpi33_to" transform="translate(754.441566,248.488542)"><g id="ekqtqpnl7gpi33_tr" transform="rotate(360)"><rect id="ekqtqpnl7gpi33" width="222" height="222" rx="0" ry="0" transform="scale(1,1) translate(-111,-111)" fill="rgb(245,235,225)" stroke="none" stroke-width="1"/></g></g></g></g></svg>