<svg id="ex3yzvo59jdj1" xmlns="http://www.w3.org/2000/svg" xmlns:xlink="http://www.w3.org/1999/xlink" viewBox="0 0 173 115.698000" shape-rendering="geometricPrecision" text-rendering="geometricPrecision"><style><![CDATA[#ex3yzvo59jdj3 {animation: ex3yzvo59jdj3_c_o 1500ms linear infinite normal forwards}@keyframes ex3yzvo59jdj3_c_o { 0% {opacity: 1} 33.333333% {opacity: 0} 66.666667% {opacity: 1} 100% {opacity: 1} }#ex3yzvo59jdj6_ts {animation: ex3yzvo59jdj6_ts__ts 1500ms linear infinite normal forwards}@keyframes ex3yzvo59jdj6_ts__ts { 0% {transform: translate(12px,0px) scale(1,1)} 33.333333% {transform: translate(12px,0px) scale(0.200000,1)} 60% {transform: translate(12px,0px) scale(1,1)} 80% {transform: translate(12px,0px) scale(1,1)} 100% {transform: translate(12px,0px) scale(1,1)} }#ex3yzvo59jdj9_to {animation: ex3yzvo59jdj9_to__to 1500ms linear infinite normal forwards}@keyframes ex3yzvo59jdj9_to__to { 0% {transform: translate(-5px,0px)} 33.333333% {transform: translate(40px,0px)} 60% {transform: translate(-12px,0px)} 80% {transform: translate(-5px,0px)} 100% {transform: translate(-5px,0px)} }#ex3yzvo59jdj9_ts {animation: ex3yzvo59jdj9_ts__ts 1500ms linear infinite normal forwards}@keyframes ex3yzvo59jdj9_ts__ts { 0% {transform: scale(1,1)} 33.333333% {transform: scale(0.200000,1)} 60% {transform: scale(1,1)} 80% {transform: scale(1,1)} 100% {transform: scale(1,1)} }]]></style><g id="ex3yzvo59jdj2" transform="matrix(1 0 0 1 -60 -55.30200000000000)"><path id="ex3yzvo59jdj3" d="M110.307000,96.955000C107.757839,96.947109,105.326065,95.882574,103.591000,94.015000L75.763000,64.551000C71.300926,59.722234,71.276598,52.281842,75.707000,47.424000C77.786532,45.161546,80.717035,43.871225,83.790000,43.865000L83.829000,43.865000C86.963950,43.883360,89.953955,45.187669,92.100000,47.473000L98.747000,54.510000L98.747000,12.241000C98.745000,5.491000,103.932000,0,110.307000,0C116.682000,0,121.869000,5.491000,121.869000,12.241000L121.869000,54.510000L128.618000,47.365000C130.697400,45.106260,133.623996,43.816202,136.694125,43.805006C139.764253,43.793809,142.700181,45.062487,144.796000,47.306000C146.977107,49.619162,148.181434,52.684787,148.158000,55.864000C148.180300,59.123602,146.961921,62.269651,144.750000,64.664000L117.023000,94.014000C115.287935,95.881574,112.856161,96.946109,110.307000,96.954000ZM83.830000,50.859000L83.813000,50.859000C82.523229,50.855381,81.290612,51.390844,80.413000,52.336000C78.532534,54.397740,78.542961,57.555722,80.437000,59.605000L108.265000,89.068000C108.791641,89.638392,109.532664,89.962783,110.309000,89.962783C111.085336,89.962783,111.826359,89.638392,112.353000,89.068000L140.080000,59.714000C141.038607,58.671724,141.565169,57.304022,141.553000,55.888000C141.567309,54.552494,141.065822,53.262955,140.153000,52.288000C139.263397,51.335963,138.017301,50.797701,136.714326,50.802635C135.411351,50.807569,134.169368,51.355253,133.287000,52.314000L120.900000,65.426000C119.984190,66.420096,118.538908,66.724407,117.300000,66.184000C116.041511,65.604094,115.242474,64.337547,115.261000,62.952000L115.261000,12.241000C115.365454,10.403559,114.444545,8.659181,112.868409,7.708974C111.292272,6.758768,109.319728,6.758768,107.743591,7.708974C106.167455,8.659181,105.246546,10.403559,105.351000,12.241000L105.351000,62.953000C105.369644,64.338332,104.570507,65.604644,103.312000,66.184000C102.073092,66.724407,100.627810,66.420096,99.712000,65.426000L87.426000,52.419000C86.490717,51.427303,85.189158,50.863294,83.826000,50.859000Z" transform="matrix(1 0 0 1 32 55.30200000000000)" fill="rgb(245,117,6)" stroke="none" stroke-width="1"/><g id="ex3yzvo59jdj4" transform="matrix(1 0 0 1 60 163)"><rect id="ex3yzvo59jdj5" width="75" height="8" rx="4" ry="0" fill="rgb(255,255,255)" stroke="none" stroke-width="1"/><g id="ex3yzvo59jdj6_ts" transform="translate(12,0) scale(1,1)"><rect id="ex3yzvo59jdj6" width="74" height="7" rx="3.500000" ry="0" transform="translate(0.500000,0.500000)" fill="none" stroke="rgb(112,112,112)" stroke-width="1"/></g></g><g id="ex3yzvo59jdj7" transform="matrix(1 0 0 1 158 163)"><rect id="ex3yzvo59jdj8" width="75" height="8" rx="4" ry="0" fill="rgb(255,255,255)" stroke="none" stroke-width="1"/><g id="ex3yzvo59jdj9_to" transform="translate(-5,0)"><g id="ex3yzvo59jdj9_ts" transform="scale(1,1)"><rect id="ex3yzvo59jdj9" width="74" height="7" rx="3.500000" ry="0" transform="translate(0.500000,0.500000)" fill="none" stroke="rgb(112,112,112)" stroke-width="1"/></g></g></g></g></svg>